<?xml version="1.0" standalone="no"?><!DOCTYPE svg PUBLIC "-//W3C//DTD SVG 1.1//EN" "http://www.w3.org/Graphics/SVG/1.1/DTD/svg11.dtd"><svg t="1679819941807" class="icon" viewBox="0 0 1024 1024" version="1.1" xmlns="http://www.w3.org/2000/svg" p-id="2526" xmlns:xlink="http://www.w3.org/1999/xlink" width="16" height="16"><path d="M96 96m32 0l768 0q32 0 32 32l0 768q0 32-32 32l-768 0q-32 0-32-32l0-768q0-32 32-32Z" fill="#FFFFFF" p-id="2527"></path><path d="M512 896h32v32H160v-32h32v-128h32v128h64v-192h32v192h64v-256h32v256h64v-160h32z" fill="#808FA1" p-id="2528"></path><path d="M640 448l186.272 103.488A208 208 0 1 1 640 224.608V448z m-160-16a176 176 0 0 0 296.416 128.384L608 466.816V262.624a176.128 176.128 0 0 0-128 169.376zM384 640h32v256H384v-256z" fill="#27A2DF" p-id="2529"></path><path d="M672 224a192 192 0 0 1 166.88 287.04L672 416V224z m32 173.408l120.096 68.384A160.064 160.064 0 0 0 704 259.2v138.208zM288 704h32v192H288v-192z" fill="#D8D8D8" p-id="2530"></path><path d="M480 736h32v160h-32z" fill="#C49F74" p-id="2531"></path><path d="M896 96a32 32 0 0 1 32 32v768a32 32 0 0 1-32 32H128a32 32 0 0 1-32-32V128a32 32 0 0 1 32-32h768z m0 32H128v768h768V128z" fill="#5D6D7E" p-id="2532"></path></svg>