<?xml version="1.0" standalone="no"?><!DOCTYPE svg PUBLIC "-//W3C//DTD SVG 1.1//EN" "http://www.w3.org/Graphics/SVG/1.1/DTD/svg11.dtd"><svg t="1679819998999" class="icon" viewBox="0 0 1024 1024" version="1.1" xmlns="http://www.w3.org/2000/svg" p-id="2751" xmlns:xlink="http://www.w3.org/1999/xlink" width="16" height="16"><path d="M312.1 285h207.4L488 316.6c28.3 2.2 57.7 3.4 88 3.4 212.1 0 384-57.3 384-128S788.1 64 576 64s-384 57.3-384 128c0 36.6 46.2 69.7 120.1 93z m108.6 98.9h140.1c-46.1-0.6-90.1-3.9-130.7-9.5l-9.4 9.5z m155.3 0.1c-4.1 0-8.2 0-12.2-0.1v256c4.1 0 8.1 0.1 12.2 0.1 212.1 0 384-57.3 384-128V256c0 70.7-171.9 128-384 128z m0 320c-32.9 0-64.9-1.4-95.4-4l39 39H200.3l-8.3-8.3V832c0 70.7 171.9 128 384 128s384-57.3 384-128V576c0 70.7-171.9 128-384 128zM201.9 285c-6.5-9.3-9.9-19-9.9-29v37.3l8.3-8.3h1.6z" fill="#E6C27C" p-id="2752"></path><path d="M226.8 349h138.3l-98.8 98.9h233.5v128.2H266.3l98.8 98.9H226.8L64 512z" fill="#497CAD" p-id="2753"></path></svg>